<svg xmlns="http://www.w3.org/2000/svg" xmlns:xlink="http://www.w3.org/1999/xlink" version="1.2" width="100%" height="100%" viewBox="-432 -432 864 864" translate="no" font-family="Helvetica,Arial,sans-serif"><defs><radialGradient id="paper" cx="50%" cy="45%" r="70%"><stop offset="0%" stop-color="#15100d"/><stop offset="62%" stop-color="#0d0907"/><stop offset="100%" stop-color="#060403"/></radialGradient><radialGradient id="ocean" cx="35%" cy="30%" r="82%"><stop offset="0%" stop-color="#cfe0ee"/><stop offset="48%" stop-color="#4a7aa6"/><stop offset="100%" stop-color="#14304c"/></radialGradient><radialGradient id="atmo" cx="50%" cy="50%" r="50%"><stop offset="62%" stop-color="#6f9ccc" stop-opacity="0"/><stop offset="73%" stop-color="#6f9ccc" stop-opacity="0.45"/><stop offset="80%" stop-color="#6f9ccc" stop-opacity="0.18"/><stop offset="100%" stop-color="#6f9ccc" stop-opacity="0"/></radialGradient><linearGradient id="gtograd" x1="0%" y1="0%" x2="100%" y2="0%"><stop offset="0%" stop-color="#bf6a47" stop-opacity="1"/><stop offset="100%" stop-color="#bf6a47" stop-opacity="0.28"/></linearGradient><radialGradient id="sunlit" cx="30%" cy="27%" r="55%"><stop offset="0%" stop-color="#fbf6ee" stop-opacity="0.75"/><stop offset="35%" stop-color="#fbf6ee" stop-opacity="0.18"/><stop offset="100%" stop-color="#fbf6ee" stop-opacity="0"/></radialGradient><radialGradient id="sungrad" cx="40%" cy="36%" r="66%"><stop offset="0%" stop-color="#fbf6ee"/><stop offset="58%" stop-color="#9a5a42"/><stop offset="100%" stop-color="#bf6a47"/></radialGradient><radialGradient id="vab_in" cx="50%" cy="50%" r="50%"><stop offset="50%" stop-color="#bf6a40" stop-opacity="0"/><stop offset="63%" stop-color="#bf6a40" stop-opacity="0.34"/><stop offset="88%" stop-color="#bf6a40" stop-opacity="0.26"/><stop offset="100%" stop-color="#bf6a40" stop-opacity="0"/></radialGradient><radialGradient id="vab_out" cx="50%" cy="50%" r="50%"><stop offset="45%" stop-color="#9a5a42" stop-opacity="0"/><stop offset="60%" stop-color="#9a5a42" stop-opacity="0.20"/><stop offset="88%" stop-color="#9a5a42" stop-opacity="0.16"/><stop offset="100%" stop-color="#9a5a42" stop-opacity="0"/></radialGradient><radialGradient id="shade" cx="50%" cy="50%" r="67%" fx="34%" fy="34%"><stop offset="12%" stop-color="#060403" stop-opacity="0"/><stop offset="99%" stop-color="#060403" stop-opacity="0.5"/></radialGradient><pattern id="hatch" width="7" height="7" patternUnits="userSpaceOnUse" patternTransform="rotate(45)"><line x1="0" y1="0" x2="0" y2="7" stroke="#d2c7ba" stroke-width="0.7" stroke-opacity="0.5"/></pattern><g id="sat" stroke="none"><rect x="-6.6" y="-1.2" width="4.0" height="2.4" fill-opacity="0.78"/><rect x="2.6" y="-1.2" width="4.0" height="2.4" fill-opacity="0.78"/><rect x="-2.3" y="-2.5" width="4.6" height="5.0"/></g><path id="tk" d="M 0,-50 V -60"/><g id="tick3"><use xlink:href="#tk"/><use xlink:href="#tk" transform="rotate(30)"/><use xlink:href="#tk" transform="rotate(60)"/></g><path id="km" d="M 10,0 V -10 M 20,0 V -10 M 30,0 V -10 M 40,0 V -10 M 50,0 V -20 M 60,0 V -10 M 70,0 V -10 M 80,0 V -10 M 90,0 V -10 M 100,0 V -30"/><path id="mi" d="M 16.1,0 V 10 M 32.2,0 V 10 M 48.3,0 V 10 M 64.4,0 V 10 M 80.5,0 V 20 M 96.6,0 V 10 M 112.7,0 V 10 M 128.8,0 V 10 M 144.9,0 V 10 M 161,0 V 30"/><clipPath id="clip_earth"><ellipse cx="0" cy="0" rx="100" ry="100"/></clipPath></defs><rect x="-432" y="-432" width="864" height="864" fill="url(#paper)"/><g transform="scale(0.86)" stroke-linejoin="round"><g stroke="#d2c7ba" fill="#d2c7ba"><circle cx="0" cy="0" r="440" fill="none" stroke-width="1.4"/><circle cx="0" cy="0" r="452" fill="none" stroke-width="0.8"/><line x1="0.0" y1="-440.0" x2="0.0" y2="-452.0" stroke-width="1.4"/><line x1="15.4" y1="-439.7" x2="15.5" y2="-443.7" stroke-width="0.8"/><line x1="30.7" y1="-438.9" x2="31.0" y2="-442.9" stroke-width="0.8"/><line x1="46.0" y1="-437.6" x2="46.4" y2="-441.6" stroke-width="0.8"/><line x1="61.2" y1="-435.7" x2="61.8" y2="-439.7" stroke-width="0.8"/><line x1="76.4" y1="-433.3" x2="77.8" y2="-441.2" stroke-width="0.8"/><line x1="91.5" y1="-430.4" x2="92.3" y2="-434.3" stroke-width="0.8"/><line x1="106.4" y1="-426.9" x2="107.4" y2="-430.8" stroke-width="0.8"/><line x1="121.3" y1="-423.0" x2="122.4" y2="-426.8" stroke-width="0.8"/><line x1="136.0" y1="-418.5" x2="137.2" y2="-422.3" stroke-width="0.8"/><line x1="150.5" y1="-413.5" x2="153.2" y2="-421.0" stroke-width="0.8"/><line x1="164.8" y1="-408.0" x2="166.3" y2="-411.7" stroke-width="0.8"/><line x1="179.0" y1="-402.0" x2="180.6" y2="-405.6" stroke-width="0.8"/><line x1="192.9" y1="-395.5" x2="194.6" y2="-399.1" stroke-width="0.8"/><line x1="206.6" y1="-388.5" x2="208.4" y2="-392.0" stroke-width="0.8"/><line x1="220.0" y1="-381.1" x2="226.0" y2="-391.4" stroke-width="1.4"/><line x1="233.2" y1="-373.1" x2="235.3" y2="-376.5" stroke-width="0.8"/><line x1="246.0" y1="-364.8" x2="248.3" y2="-368.1" stroke-width="0.8"/><line x1="258.6" y1="-356.0" x2="261.0" y2="-359.2" stroke-width="0.8"/><line x1="270.9" y1="-346.7" x2="273.4" y2="-349.9" stroke-width="0.8"/><line x1="282.8" y1="-337.1" x2="288.0" y2="-343.2" stroke-width="0.8"/><line x1="294.4" y1="-327.0" x2="297.1" y2="-330.0" stroke-width="0.8"/><line x1="305.6" y1="-316.5" x2="308.4" y2="-319.4" stroke-width="0.8"/><line x1="316.5" y1="-305.6" x2="319.4" y2="-308.4" stroke-width="0.8"/><line x1="327.0" y1="-294.4" x2="330.0" y2="-297.1" stroke-width="0.8"/><line x1="337.1" y1="-282.8" x2="343.2" y2="-288.0" stroke-width="0.8"/><line x1="346.7" y1="-270.9" x2="349.9" y2="-273.4" stroke-width="0.8"/><line x1="356.0" y1="-258.6" x2="359.2" y2="-261.0" stroke-width="0.8"/><line x1="364.8" y1="-246.0" x2="368.1" y2="-248.3" stroke-width="0.8"/><line x1="373.1" y1="-233.2" x2="376.5" y2="-235.3" stroke-width="0.8"/><line x1="381.1" y1="-220.0" x2="391.4" y2="-226.0" stroke-width="1.4"/><line x1="388.5" y1="-206.6" x2="392.0" y2="-208.4" stroke-width="0.8"/><line x1="395.5" y1="-192.9" x2="399.1" y2="-194.6" stroke-width="0.8"/><line x1="402.0" y1="-179.0" x2="405.6" y2="-180.6" stroke-width="0.8"/><line x1="408.0" y1="-164.8" x2="411.7" y2="-166.3" stroke-width="0.8"/><line x1="413.5" y1="-150.5" x2="421.0" y2="-153.2" stroke-width="0.8"/><line x1="418.5" y1="-136.0" x2="422.3" y2="-137.2" stroke-width="0.8"/><line x1="423.0" y1="-121.3" x2="426.8" y2="-122.4" stroke-width="0.8"/><line x1="426.9" y1="-106.4" x2="430.8" y2="-107.4" stroke-width="0.8"/><line x1="430.4" y1="-91.5" x2="434.3" y2="-92.3" stroke-width="0.8"/><line x1="433.3" y1="-76.4" x2="441.2" y2="-77.8" stroke-width="0.8"/><line x1="435.7" y1="-61.2" x2="439.7" y2="-61.8" stroke-width="0.8"/><line x1="437.6" y1="-46.0" x2="441.6" y2="-46.4" stroke-width="0.8"/><line x1="438.9" y1="-30.7" x2="442.9" y2="-31.0" stroke-width="0.8"/><line x1="439.7" y1="-15.4" x2="443.7" y2="-15.5" stroke-width="0.8"/><line x1="440.0" y1="-0.0" x2="452.0" y2="-0.0" stroke-width="1.4"/><line x1="439.7" y1="15.4" x2="443.7" y2="15.5" stroke-width="0.8"/><line x1="438.9" y1="30.7" x2="442.9" y2="31.0" stroke-width="0.8"/><line x1="437.6" y1="46.0" x2="441.6" y2="46.4" stroke-width="0.8"/><line x1="435.7" y1="61.2" x2="439.7" y2="61.8" stroke-width="0.8"/><line x1="433.3" y1="76.4" x2="441.2" y2="77.8" stroke-width="0.8"/><line x1="430.4" y1="91.5" x2="434.3" y2="92.3" stroke-width="0.8"/><line x1="426.9" y1="106.4" x2="430.8" y2="107.4" stroke-width="0.8"/><line x1="423.0" y1="121.3" x2="426.8" y2="122.4" stroke-width="0.8"/><line x1="418.5" y1="136.0" x2="422.3" y2="137.2" stroke-width="0.8"/><line x1="413.5" y1="150.5" x2="421.0" y2="153.2" stroke-width="0.8"/><line x1="408.0" y1="164.8" x2="411.7" y2="166.3" stroke-width="0.8"/><line x1="402.0" y1="179.0" x2="405.6" y2="180.6" stroke-width="0.8"/><line x1="395.5" y1="192.9" x2="399.1" y2="194.6" stroke-width="0.8"/><line x1="388.5" y1="206.6" x2="392.0" y2="208.4" stroke-width="0.8"/><line x1="381.1" y1="220.0" x2="391.4" y2="226.0" stroke-width="1.4"/><line x1="373.1" y1="233.2" x2="376.5" y2="235.3" stroke-width="0.8"/><line x1="364.8" y1="246.0" x2="368.1" y2="248.3" stroke-width="0.8"/><line x1="356.0" y1="258.6" x2="359.2" y2="261.0" stroke-width="0.8"/><line x1="346.7" y1="270.9" x2="349.9" y2="273.4" stroke-width="0.8"/><line x1="337.1" y1="282.8" x2="343.2" y2="288.0" stroke-width="0.8"/><line x1="327.0" y1="294.4" x2="330.0" y2="297.1" stroke-width="0.8"/><line x1="316.5" y1="305.6" x2="319.4" y2="308.4" stroke-width="0.8"/><line x1="305.6" y1="316.5" x2="308.4" y2="319.4" stroke-width="0.8"/><line x1="294.4" y1="327.0" x2="297.1" y2="330.0" stroke-width="0.8"/><line x1="282.8" y1="337.1" x2="288.0" y2="343.2" stroke-width="0.8"/><line x1="270.9" y1="346.7" x2="273.4" y2="349.9" stroke-width="0.8"/><line x1="258.6" y1="356.0" x2="261.0" y2="359.2" stroke-width="0.8"/><line x1="246.0" y1="364.8" x2="248.3" y2="368.1" stroke-width="0.8"/><line x1="233.2" y1="373.1" x2="235.3" y2="376.5" stroke-width="0.8"/><line x1="220.0" y1="381.1" x2="226.0" y2="391.4" stroke-width="1.4"/><line x1="206.6" y1="388.5" x2="208.4" y2="392.0" stroke-width="0.8"/><line x1="192.9" y1="395.5" x2="194.6" y2="399.1" stroke-width="0.8"/><line x1="179.0" y1="402.0" x2="180.6" y2="405.6" stroke-width="0.8"/><line x1="164.8" y1="408.0" x2="166.3" y2="411.7" stroke-width="0.8"/><line x1="150.5" y1="413.5" x2="153.2" y2="421.0" stroke-width="0.8"/><line x1="136.0" y1="418.5" x2="137.2" y2="422.3" stroke-width="0.8"/><line x1="121.3" y1="423.0" x2="122.4" y2="426.8" stroke-width="0.8"/><line x1="106.4" y1="426.9" x2="107.4" y2="430.8" stroke-width="0.8"/><line x1="91.5" y1="430.4" x2="92.3" y2="434.3" stroke-width="0.8"/><line x1="76.4" y1="433.3" x2="77.8" y2="441.2" stroke-width="0.8"/><line x1="61.2" y1="435.7" x2="61.8" y2="439.7" stroke-width="0.8"/><line x1="46.0" y1="437.6" x2="46.4" y2="441.6" stroke-width="0.8"/><line x1="30.7" y1="438.9" x2="31.0" y2="442.9" stroke-width="0.8"/><line x1="15.4" y1="439.7" x2="15.5" y2="443.7" stroke-width="0.8"/><line x1="0.0" y1="440.0" x2="0.0" y2="452.0" stroke-width="1.4"/><line x1="-15.4" y1="439.7" x2="-15.5" y2="443.7" stroke-width="0.8"/><line x1="-30.7" y1="438.9" x2="-31.0" y2="442.9" stroke-width="0.8"/><line x1="-46.0" y1="437.6" x2="-46.4" y2="441.6" stroke-width="0.8"/><line x1="-61.2" y1="435.7" x2="-61.8" y2="439.7" stroke-width="0.8"/><line x1="-76.4" y1="433.3" x2="-77.8" y2="441.2" stroke-width="0.8"/><line x1="-91.5" y1="430.4" x2="-92.3" y2="434.3" stroke-width="0.8"/><line x1="-106.4" y1="426.9" x2="-107.4" y2="430.8" stroke-width="0.8"/><line x1="-121.3" y1="423.0" x2="-122.4" y2="426.8" stroke-width="0.8"/><line x1="-136.0" y1="418.5" x2="-137.2" y2="422.3" stroke-width="0.8"/><line x1="-150.5" y1="413.5" x2="-153.2" y2="421.0" stroke-width="0.8"/><line x1="-164.8" y1="408.0" x2="-166.3" y2="411.7" stroke-width="0.8"/><line x1="-179.0" y1="402.0" x2="-180.6" y2="405.6" stroke-width="0.8"/><line x1="-192.9" y1="395.5" x2="-194.6" y2="399.1" stroke-width="0.8"/><line x1="-206.6" y1="388.5" x2="-208.4" y2="392.0" stroke-width="0.8"/><line x1="-220.0" y1="381.1" x2="-226.0" y2="391.4" stroke-width="1.4"/><line x1="-233.2" y1="373.1" x2="-235.3" y2="376.5" stroke-width="0.8"/><line x1="-246.0" y1="364.8" x2="-248.3" y2="368.1" stroke-width="0.8"/><line x1="-258.6" y1="356.0" x2="-261.0" y2="359.2" stroke-width="0.8"/><line x1="-270.9" y1="346.7" x2="-273.4" y2="349.9" stroke-width="0.8"/><line x1="-282.8" y1="337.1" x2="-288.0" y2="343.2" stroke-width="0.8"/><line x1="-294.4" y1="327.0" x2="-297.1" y2="330.0" stroke-width="0.8"/><line x1="-305.6" y1="316.5" x2="-308.4" y2="319.4" stroke-width="0.8"/><line x1="-316.5" y1="305.6" x2="-319.4" y2="308.4" stroke-width="0.8"/><line x1="-327.0" y1="294.4" x2="-330.0" y2="297.1" stroke-width="0.8"/><line x1="-337.1" y1="282.8" x2="-343.2" y2="288.0" stroke-width="0.8"/><line x1="-346.7" y1="270.9" x2="-349.9" y2="273.4" stroke-width="0.8"/><line x1="-356.0" y1="258.6" x2="-359.2" y2="261.0" stroke-width="0.8"/><line x1="-364.8" y1="246.0" x2="-368.1" y2="248.3" stroke-width="0.8"/><line x1="-373.1" y1="233.2" x2="-376.5" y2="235.3" stroke-width="0.8"/><line x1="-381.1" y1="220.0" x2="-391.4" y2="226.0" stroke-width="1.4"/><line x1="-388.5" y1="206.6" x2="-392.0" y2="208.4" stroke-width="0.8"/><line x1="-395.5" y1="192.9" x2="-399.1" y2="194.6" stroke-width="0.8"/><line x1="-402.0" y1="179.0" x2="-405.6" y2="180.6" stroke-width="0.8"/><line x1="-408.0" y1="164.8" x2="-411.7" y2="166.3" stroke-width="0.8"/><line x1="-413.5" y1="150.5" x2="-421.0" y2="153.2" stroke-width="0.8"/><line x1="-418.5" y1="136.0" x2="-422.3" y2="137.2" stroke-width="0.8"/><line x1="-423.0" y1="121.3" x2="-426.8" y2="122.4" stroke-width="0.8"/><line x1="-426.9" y1="106.4" x2="-430.8" y2="107.4" stroke-width="0.8"/><line x1="-430.4" y1="91.5" x2="-434.3" y2="92.3" stroke-width="0.8"/><line x1="-433.3" y1="76.4" x2="-441.2" y2="77.8" stroke-width="0.8"/><line x1="-435.7" y1="61.2" x2="-439.7" y2="61.8" stroke-width="0.8"/><line x1="-437.6" y1="46.0" x2="-441.6" y2="46.4" stroke-width="0.8"/><line x1="-438.9" y1="30.7" x2="-442.9" y2="31.0" stroke-width="0.8"/><line x1="-439.7" y1="15.4" x2="-443.7" y2="15.5" stroke-width="0.8"/><line x1="-440.0" y1="0.0" x2="-452.0" y2="0.0" stroke-width="1.4"/><line x1="-439.7" y1="-15.4" x2="-443.7" y2="-15.5" stroke-width="0.8"/><line x1="-438.9" y1="-30.7" x2="-442.9" y2="-31.0" stroke-width="0.8"/><line x1="-437.6" y1="-46.0" x2="-441.6" y2="-46.4" stroke-width="0.8"/><line x1="-435.7" y1="-61.2" x2="-439.7" y2="-61.8" stroke-width="0.8"/><line x1="-433.3" y1="-76.4" x2="-441.2" y2="-77.8" stroke-width="0.8"/><line x1="-430.4" y1="-91.5" x2="-434.3" y2="-92.3" stroke-width="0.8"/><line x1="-426.9" y1="-106.4" x2="-430.8" y2="-107.4" stroke-width="0.8"/><line x1="-423.0" y1="-121.3" x2="-426.8" y2="-122.4" stroke-width="0.8"/><line x1="-418.5" y1="-136.0" x2="-422.3" y2="-137.2" stroke-width="0.8"/><line x1="-413.5" y1="-150.5" x2="-421.0" y2="-153.2" stroke-width="0.8"/><line x1="-408.0" y1="-164.8" x2="-411.7" y2="-166.3" stroke-width="0.8"/><line x1="-402.0" y1="-179.0" x2="-405.6" y2="-180.6" stroke-width="0.8"/><line x1="-395.5" y1="-192.9" x2="-399.1" y2="-194.6" stroke-width="0.8"/><line x1="-388.5" y1="-206.6" x2="-392.0" y2="-208.4" stroke-width="0.8"/><line x1="-381.1" y1="-220.0" x2="-391.4" y2="-226.0" stroke-width="1.4"/><line x1="-373.1" y1="-233.2" x2="-376.5" y2="-235.3" stroke-width="0.8"/><line x1="-364.8" y1="-246.0" x2="-368.1" y2="-248.3" stroke-width="0.8"/><line x1="-356.0" y1="-258.6" x2="-359.2" y2="-261.0" stroke-width="0.8"/><line x1="-346.7" y1="-270.9" x2="-349.9" y2="-273.4" stroke-width="0.8"/><line x1="-337.1" y1="-282.8" x2="-343.2" y2="-288.0" stroke-width="0.8"/><line x1="-327.0" y1="-294.4" x2="-330.0" y2="-297.1" stroke-width="0.8"/><line x1="-316.5" y1="-305.6" x2="-319.4" y2="-308.4" stroke-width="0.8"/><line x1="-305.6" y1="-316.5" x2="-308.4" y2="-319.4" stroke-width="0.8"/><line x1="-294.4" y1="-327.0" x2="-297.1" y2="-330.0" stroke-width="0.8"/><line x1="-282.8" y1="-337.1" x2="-288.0" y2="-343.2" stroke-width="0.8"/><line x1="-270.9" y1="-346.7" x2="-273.4" y2="-349.9" stroke-width="0.8"/><line x1="-258.6" y1="-356.0" x2="-261.0" y2="-359.2" stroke-width="0.8"/><line x1="-246.0" y1="-364.8" x2="-248.3" y2="-368.1" stroke-width="0.8"/><line x1="-233.2" y1="-373.1" x2="-235.3" y2="-376.5" stroke-width="0.8"/><line x1="-220.0" y1="-381.1" x2="-226.0" y2="-391.4" stroke-width="1.4"/><line x1="-206.6" y1="-388.5" x2="-208.4" y2="-392.0" stroke-width="0.8"/><line x1="-192.9" y1="-395.5" x2="-194.6" y2="-399.1" stroke-width="0.8"/><line x1="-179.0" y1="-402.0" x2="-180.6" y2="-405.6" stroke-width="0.8"/><line x1="-164.8" y1="-408.0" x2="-166.3" y2="-411.7" stroke-width="0.8"/><line x1="-150.5" y1="-413.5" x2="-153.2" y2="-421.0" stroke-width="0.8"/><line x1="-136.0" y1="-418.5" x2="-137.2" y2="-422.3" stroke-width="0.8"/><line x1="-121.3" y1="-423.0" x2="-122.4" y2="-426.8" stroke-width="0.8"/><line x1="-106.4" y1="-426.9" x2="-107.4" y2="-430.8" stroke-width="0.8"/><line x1="-91.5" y1="-430.4" x2="-92.3" y2="-434.3" stroke-width="0.8"/><line x1="-76.4" y1="-433.3" x2="-77.8" y2="-441.2" stroke-width="0.8"/><line x1="-61.2" y1="-435.7" x2="-61.8" y2="-439.7" stroke-width="0.8"/><line x1="-46.0" y1="-437.6" x2="-46.4" y2="-441.6" stroke-width="0.8"/><line x1="-30.7" y1="-438.9" x2="-31.0" y2="-442.9" stroke-width="0.8"/><line x1="-15.4" y1="-439.7" x2="-15.5" y2="-443.7" stroke-width="0.8"/><text x="0.0" y="-412.0" font-size="22" font-weight="700" text-anchor="middle" stroke="none">N</text><text x="0.0" y="428.0" font-size="22" font-weight="700" text-anchor="middle" stroke="none">S</text><text x="-420.0" y="8.0" font-size="22" font-weight="700" text-anchor="middle" stroke="none">W</text></g><g><circle cx="0" cy="0" r="140" fill="url(#vab_in)"/><circle cx="0" cy="0" r="420" fill="url(#vab_out)"/><text x="6" y="-100" font-size="15" font-style="italic" fill="#d2c7ba" fill-opacity="0.4" stroke="none">inner van allen belt</text><text x="6" y="-300" font-size="15" font-style="italic" fill="#d2c7ba" fill-opacity="0.4" stroke="none">outer van allen belt</text></g><g stroke="#d2c7ba" fill="#d2c7ba" stroke-width="1.5" text-anchor="start" stroke-linecap="round"><ellipse cx="0" cy="0" rx="425" ry="425" fill="none" stroke-opacity="0.5"/><g><animateTransform attributeName="transform" attributeType="XML" type="rotate" from="0 0 0" to="-360 0 0" dur="12.579s" repeatCount="indefinite"/><use xlink:href="#sat" transform="translate(0,-425)"/></g><text x="146" y="-402" font-size="30" stroke="none" fill-opacity="0.95">graveyard orbit<tspan x="146" y="-374" font-size="20">geo + 300 km</tspan><tspan x="146" y="-350" font-size="16">Telstar 401 · AMC-9</tspan></text></g><g stroke="#d2c7ba" fill="#d2c7ba" stroke-width="1.5" text-anchor="end" stroke-linecap="round"><ellipse cx="0" cy="0" rx="422" ry="422" fill="none" stroke-opacity="0.5"/><g><animateTransform attributeName="transform" attributeType="XML" type="rotate" from="0 0 0" to="-360 0 0" dur="12.444s" repeatCount="indefinite"/><use xlink:href="#sat" transform="translate(0,-422)"/></g><text x="-156" y="-398" font-size="30" stroke="none" fill-opacity="0.95">geostationary<tspan x="-156" y="-371" font-size="30">earth orbit</tspan></text></g><g stroke="#d2c7ba" fill="#d2c7ba" stroke-width="1.5" text-anchor="end" stroke-linecap="round"><ellipse cx="0" cy="0" rx="296" ry="296" fill="none" stroke-opacity="0.5"/><g><animateTransform attributeName="transform" attributeType="XML" type="rotate" from="0 0 0" to="-360 0 0" dur="7.472s" repeatCount="indefinite"/><use xlink:href="#sat" transform="translate(0,-296)"/></g><text x="-136" y="-300" font-size="30" stroke="none" fill-opacity="0.95">galileo<tspan x="-136" y="-278" font-size="16">× 28</tspan></text></g><g stroke="#d2c7ba" fill="#d2c7ba" stroke-width="1.5" text-anchor="start" stroke-linecap="round"><ellipse cx="0" cy="0" rx="279" ry="279" fill="none" stroke-opacity="0.5"/><g><animateTransform attributeName="transform" attributeType="XML" type="rotate" from="0 0 0" to="-360 0 0" dur="6.562s" repeatCount="indefinite"/><use xlink:href="#sat" transform="translate(0,-279)"/></g><text x="216" y="-296" font-size="30" stroke="none" fill-opacity="0.95">beidou<tspan x="216" y="-270" font-size="18">× 35 meo</tspan></text></g><g stroke="#d2c7ba" fill="#d2c7ba" stroke-width="1.5" text-anchor="end" stroke-linecap="round"><ellipse cx="0" cy="0" rx="266" ry="266" fill="none" stroke-opacity="0.5"/><g><animateTransform attributeName="transform" attributeType="XML" type="rotate" from="0 0 0" to="-360 0 0" dur="6.224s" repeatCount="indefinite"/><use xlink:href="#sat" transform="translate(0,-266)"/></g><text x="-136" y="-256" font-size="30" stroke="none" fill-opacity="0.95">gps<tspan x="-136" y="-234" font-size="16">× 31</tspan></text></g><g stroke="#d2c7ba" fill="#d2c7ba" stroke-width="1.5" text-anchor="start" stroke-linecap="round"><ellipse cx="0" cy="0" rx="255" ry="255" fill="none" stroke-opacity="0.5"/><g><animateTransform attributeName="transform" attributeType="XML" type="rotate" from="0 0 0" to="-360 0 0" dur="5.85s" repeatCount="indefinite"/><use xlink:href="#sat" transform="translate(0,-255)"/></g><text x="216" y="-232" font-size="30" stroke="none" fill-opacity="0.95">glonass<tspan x="216" y="-210" font-size="16">× 24</tspan></text></g><g stroke="#d2c7ba" fill="#d2c7ba" stroke-width="1.5" text-anchor="start" stroke-linecap="round"><ellipse cx="0" cy="0" rx="144" ry="144" fill="none" stroke-opacity="0.5"/><g><animateTransform attributeName="transform" attributeType="XML" type="rotate" from="0 0 0" to="-360 0 0" dur="2.496s" repeatCount="indefinite"/><use xlink:href="#sat" transform="translate(0,-144)"/></g><text x="206" y="-2" font-size="26" stroke="none" fill-opacity="0.95">O3b<tspan x="206" y="18" font-size="16">meo</tspan></text></g><g stroke="#bf6a47" fill="#bf6a47" stroke-width="1.5" text-anchor="start" stroke-linecap="round"><ellipse cx="0" cy="0" rx="74" ry="74" fill="none" stroke-opacity="0.55" stroke-width="0.9"/><g><animateTransform attributeName="transform" attributeType="XML" type="rotate" from="0 0 0" to="-360 0 0" dur="0.78s" repeatCount="indefinite"/><use xlink:href="#sat" transform="translate(0,74)"/></g><text x="126" y="162" font-size="22" stroke="none" fill-opacity="0.95">low Earth orbit<tspan x="126" y="181" font-size="13" font-style="normal" fill-opacity="0.62">ISS · Hubble · Starlink · Iridium</tspan></text></g><g fill="#d2c7ba" stroke="none"><g><animateTransform attributeName="transform" attributeType="XML" type="rotate" from="0 0 0" to="-360 0 0" dur="12.444s" repeatCount="indefinite"/><circle cx="0.0" cy="-422.0" r="1.7" fill-opacity="0.7"/><circle cx="161.5" cy="-389.9" r="1.7" fill-opacity="0.7"/><circle cx="298.4" cy="-298.4" r="1.7" fill-opacity="0.7"/><circle cx="389.9" cy="-161.5" r="1.7" fill-opacity="0.7"/><circle cx="422.0" cy="-0.0" r="1.7" fill-opacity="0.7"/><circle cx="389.9" cy="161.5" r="1.7" fill-opacity="0.7"/><circle cx="298.4" cy="298.4" r="1.7" fill-opacity="0.7"/><circle cx="161.5" cy="389.9" r="1.7" fill-opacity="0.7"/><circle cx="0.0" cy="422.0" r="1.7" fill-opacity="0.7"/><circle cx="-161.5" cy="389.9" r="1.7" fill-opacity="0.7"/><circle cx="-298.4" cy="298.4" r="1.7" fill-opacity="0.7"/><circle cx="-389.9" cy="161.5" r="1.7" fill-opacity="0.7"/><circle cx="-422.0" cy="0.0" r="1.7" fill-opacity="0.7"/><circle cx="-389.9" cy="-161.5" r="1.7" fill-opacity="0.7"/><circle cx="-298.4" cy="-298.4" r="1.7" fill-opacity="0.7"/><circle cx="-161.5" cy="-389.9" r="1.7" fill-opacity="0.7"/></g></g><g fill="#d2c7ba" stroke="none"><g><animateTransform attributeName="transform" attributeType="XML" type="rotate" from="0 0 0" to="-360 0 0" dur="3.38s" repeatCount="indefinite"/><circle cx="-0.5" cy="-99.6" r="0.9" fill-opacity="0.3"/><circle cx="18.2" cy="-97.0" r="0.9" fill-opacity="0.3"/><circle cx="28.2" cy="-95.8" r="0.9" fill-opacity="0.3"/><circle cx="38.3" cy="-91.4" r="0.9" fill-opacity="0.3"/><circle cx="56.2" cy="-85.0" r="0.9" fill-opacity="0.3"/><circle cx="60.5" cy="-75.9" r="0.9" fill-opacity="0.3"/><circle cx="74.4" cy="-70.0" r="0.9" fill-opacity="0.3"/><circle cx="80.4" cy="-49.5" r="0.9" fill-opacity="0.3"/><circle cx="96.2" cy="-38.5" r="0.9" fill-opacity="0.3"/><circle cx="96.5" cy="-26.7" r="0.9" fill-opacity="0.3"/><circle cx="92.7" cy="-16.6" r="0.9" fill-opacity="0.3"/><circle cx="94.6" cy="0.3" r="0.9" fill-opacity="0.3"/><circle cx="95.8" cy="10.8" r="0.9" fill-opacity="0.3"/><circle cx="95.8" cy="23.3" r="0.9" fill-opacity="0.3"/><circle cx="93.4" cy="42.0" r="0.9" fill-opacity="0.3"/><circle cx="84.4" cy="54.4" r="0.9" fill-opacity="0.3"/><circle cx="76.0" cy="65.9" r="0.9" fill-opacity="0.3"/><circle cx="63.7" cy="72.9" r="0.9" fill-opacity="0.3"/><circle cx="51.8" cy="90.1" r="0.9" fill-opacity="0.3"/><circle cx="38.8" cy="93.3" r="0.9" fill-opacity="0.3"/><circle cx="28.8" cy="91.9" r="0.9" fill-opacity="0.3"/><circle cx="15.5" cy="93.4" r="0.9" fill-opacity="0.3"/><circle cx="-2.6" cy="98.0" r="0.9" fill-opacity="0.3"/><circle cx="-17.3" cy="96.3" r="0.9" fill-opacity="0.3"/><circle cx="-33.3" cy="96.9" r="0.9" fill-opacity="0.3"/><circle cx="-35.5" cy="89.3" r="0.9" fill-opacity="0.3"/><circle cx="-56.7" cy="80.8" r="0.9" fill-opacity="0.3"/><circle cx="-67.6" cy="70.9" r="0.9" fill-opacity="0.3"/><circle cx="-72.9" cy="68.9" r="0.9" fill-opacity="0.3"/><circle cx="-82.8" cy="50.0" r="0.9" fill-opacity="0.3"/><circle cx="-86.8" cy="44.0" r="0.9" fill-opacity="0.3"/><circle cx="-98.7" cy="24.1" r="0.9" fill-opacity="0.3"/><circle cx="-94.9" cy="17.4" r="0.9" fill-opacity="0.3"/><circle cx="-94.5" cy="3.8" r="0.9" fill-opacity="0.3"/><circle cx="-94.4" cy="-16.4" r="0.9" fill-opacity="0.3"/><circle cx="-94.3" cy="-28.3" r="0.9" fill-opacity="0.3"/><circle cx="-93.4" cy="-39.2" r="0.9" fill-opacity="0.3"/><circle cx="-86.4" cy="-51.1" r="0.9" fill-opacity="0.3"/><circle cx="-76.6" cy="-61.4" r="0.9" fill-opacity="0.3"/><circle cx="-65.4" cy="-71.2" r="0.9" fill-opacity="0.3"/><circle cx="-51.1" cy="-88.3" r="0.9" fill-opacity="0.3"/><circle cx="-44.5" cy="-92.7" r="0.9" fill-opacity="0.3"/><circle cx="-30.3" cy="-93.1" r="0.9" fill-opacity="0.3"/><circle cx="-10.8" cy="-99.8" r="0.9" fill-opacity="0.3"/></g></g><g fill="#d2c7ba" stroke="none"><g><animateTransform attributeName="transform" attributeType="XML" type="rotate" from="0 0 0" to="-360 0 0" dur="5.72s" repeatCount="indefinite"/><circle cx="-8.1" cy="-174.7" r="0.9" fill-opacity="0.3"/><circle cx="22.1" cy="-166.1" r="0.9" fill-opacity="0.3"/><circle cx="59.6" cy="-157.4" r="0.9" fill-opacity="0.3"/><circle cx="75.4" cy="-147.6" r="0.9" fill-opacity="0.3"/><circle cx="98.4" cy="-139.6" r="0.9" fill-opacity="0.3"/><circle cx="122.3" cy="-119.5" r="0.9" fill-opacity="0.3"/><circle cx="140.5" cy="-94.8" r="0.9" fill-opacity="0.3"/><circle cx="158.9" cy="-59.9" r="0.9" fill-opacity="0.3"/><circle cx="168.7" cy="-41.2" r="0.9" fill-opacity="0.3"/><circle cx="165.4" cy="-19.8" r="0.9" fill-opacity="0.3"/><circle cx="171.7" cy="22.4" r="0.9" fill-opacity="0.3"/><circle cx="162.9" cy="36.3" r="0.9" fill-opacity="0.3"/><circle cx="157.7" cy="74.5" r="0.9" fill-opacity="0.3"/><circle cx="149.3" cy="90.3" r="0.9" fill-opacity="0.3"/><circle cx="120.6" cy="121.3" r="0.9" fill-opacity="0.3"/><circle cx="103.2" cy="130.1" r="0.9" fill-opacity="0.3"/><circle cx="91.2" cy="148.9" r="0.9" fill-opacity="0.3"/><circle cx="60.8" cy="161.0" r="0.9" fill-opacity="0.3"/><circle cx="33.3" cy="170.0" r="0.9" fill-opacity="0.3"/><circle cx="-1.9" cy="167.9" r="0.9" fill-opacity="0.3"/><circle cx="-21.9" cy="170.8" r="0.9" fill-opacity="0.3"/><circle cx="-46.4" cy="160.7" r="0.9" fill-opacity="0.3"/><circle cx="-83.6" cy="152.0" r="0.9" fill-opacity="0.3"/><circle cx="-104.8" cy="131.0" r="0.9" fill-opacity="0.3"/><circle cx="-128.2" cy="107.1" r="0.9" fill-opacity="0.3"/><circle cx="-135.0" cy="99.4" r="0.9" fill-opacity="0.3"/><circle cx="-151.2" cy="67.5" r="0.9" fill-opacity="0.3"/><circle cx="-161.9" cy="47.5" r="0.9" fill-opacity="0.3"/><circle cx="-165.9" cy="12.3" r="0.9" fill-opacity="0.3"/><circle cx="-173.5" cy="-11.6" r="0.9" fill-opacity="0.3"/><circle cx="-163.7" cy="-51.3" r="0.9" fill-opacity="0.3"/><circle cx="-154.9" cy="-72.1" r="0.9" fill-opacity="0.3"/><circle cx="-142.1" cy="-84.6" r="0.9" fill-opacity="0.3"/><circle cx="-134.5" cy="-110.6" r="0.9" fill-opacity="0.3"/><circle cx="-104.0" cy="-140.3" r="0.9" fill-opacity="0.3"/><circle cx="-89.8" cy="-146.0" r="0.9" fill-opacity="0.3"/><circle cx="-56.3" cy="-162.9" r="0.9" fill-opacity="0.3"/><circle cx="-32.4" cy="-172.0" r="0.9" fill-opacity="0.3"/></g></g><text x="92" y="232" font-size="15" stroke="none" fill="#d2c7ba" fill-opacity="0.55" font-style="italic" text-anchor="start">space debris<tspan x="92" y="250" font-size="12" font-style="normal">Cosmos 2251 · Iridium 33 · Fengyun-1C</tspan></text><g stroke="#d2c7ba" fill="none" stroke-width="1.3"><ellipse cx="0" cy="-195" rx="179" ry="265" stroke-dasharray="7,5" stroke-opacity="0.5"/><text x="-150" y="42" font-size="22" font-style="italic" fill="#d2c7ba" fill-opacity="0.85" stroke="none" text-anchor="end">molniya (HEO)<tspan x="-150" y="64" font-size="14" font-style="normal" fill-opacity="0.6">Molniya-3 · Meridian</tspan></text></g><g stroke="#bf6a47" fill="none" stroke-width="1.6"><ellipse cx="178" cy="0" rx="244" ry="167" stroke="url(#gtograd)" stroke-dasharray="9,6" stroke-opacity="0.95"/><circle cx="-66" cy="0" r="4.5" fill="#bf6a47"/></g><g><circle cx="0" cy="0" r="86" fill="url(#atmo)"/><ellipse cx="0" cy="0" rx="64.28" ry="64.28" fill="url(#ocean)" stroke="#d2c7ba" stroke-opacity="0.55" stroke-width="1.3"/><g><animateTransform attributeName="transform" attributeType="XML" type="rotate" from="0 0 0" to="-360 0 0" dur="12.444s" repeatCount="indefinite"/><path transform="scale(0.6378)" fill="#4f8060" fill-opacity="0.82" stroke="none" clip-path="url(#clip_earth)" d="M -15,-22 C -18,-28 -9,-20 -13,-28 -9,-30 -12,-31 -6,-34 -2,-36 -9,-35 -3,-43 2,-38 -6,-34 -2,-31 -3,-38 20,-31 8,-41 9,-53 12,-47 10,-42 20,-56 19,-43 23,-50 28,-50 21,-54 28,-55 28,-50 29,-43 35,-46 26,-54 36,-44 35,-56 51,-65 53,-49 59,-52 59,-62 62,-61 68,-59 69,-57 67,-46 74,-52 76,-58 70,-55 76,-63 79,-52 76,-58 75,-50 62,-41 76,-43 70,-40 62,-29 77,-29 80,-23 84,-25 99,-19 76,-11 77,1 71,-11 71,6 67,23 64,12 63,20 79,17 64,12 74,7 81,11 79,22 81,31 72,33 57,32 59,36 95,34 79,22 85,19 100,37 82,45 108,48 101,68 114,55 110,67 111,71 113,85 96,100 85,98 66,99 70,87 52,79 60,92 55,80 41,77 28,102 13,85 10,74 11,61 35,48 34,53 49,48 46,45 46,40 60,38 53,29 49,26 51,40 43,34 46,25 49,26 49,21 44,21 45,23 42,22 42,22 43,24 44,26 34,26 44,31 43,34 38,39 49,36 41,40 22,36 32,42 39,41 35,48 44,46 34,46 44,41 24,40 23,50 23,55 16,61 14,50 24,45 21,44 16,44 14,40 25,37 19,30 22,26 19,35 24,31 33,24 21,24 20,17 18,18 31,35 20,27 20,32 13,28 16,24 16,19 12,14 22,10 26,13 22,5 23,2 26,-2 12,-1 23,-3 16,-3 16,-8 10,-10 8,-14 14,-12 10,-15 7,-16 10,-22 3,-19 -7,-26 -6,-17 -15,-22  M -26,-30 C -28,-14 -24,-35 -15,-17 -16,-7 -24,-14 -22,-5 -28,8 -21,7 -18,3 -13,9 -29,11 -19,11 -23,18 -23,8 -24,16 -31,7 -36,12 -32,20 -36,22 -36,29 -31,22 -29,28 -25,9 -23,25 -20,31 -23,35 -22,42 -35,36 -11,39 -34,33 -22,37 -36,34 -28,40 -41,39 -29,38 -37,37 -41,39 -41,34 -46,39 -59,32 -56,43 -60,40 -60,35 -54,37 -62,29 -61,11 -87,28 -69,32 -64,42 -79,30 -71,43 -82,50 -70,50 -72,56 -56,58 -67,61 -53,71 -48,86 -42,78 -41,90 -38,96 -14,102 -19,107 -20,110 -30,110 -28,114 -32,121 -34,121 -51,117 -51,122 -67,125 -77,114 -66,127 -89,115 -93,112 -88,122 -105,106 -101,116 -116,108 -106,120 -105,122 -126,108 -124,92 -111,98 -104,88 -109,102 -86,84 -94,66 -87,70 -88,58 -81,53 -79,62 -74,57 -72,51 -74,52 -76,53 -80,40 -76,38 -77,29 -79,25 -79,10 -75,13 -74,10 -71,6 -66,1 -74,5 -73,7 -75,8 -74,-0 -64,0 -62,-6 -46,-15 -59,0 -31,-15 -24,-21 -30,-23 -26,-30  M 13,-141 C -15,-128 24,-122 23,-109 28,-109 25,-120 33,-114 40,-109 38,-108 33,-109 49,-99 48,-108 53,-103 73,-96 58,-108 81,-94 90,-96 82,-102 87,-107 73,-122 59,-116 44,-131 33,-133 42,-142 13,-141  M 12,-106 C 19,-102 27,-101 29,-97 42,-98 29,-95 40,-92 42,-100 25,-100 33,-104 30,-105 26,-108 21,-108 16,-103 19,-112 7,-111 2,-111 19,-107 12,-106  M 108,31 C 115,25 114,33 120,37 121,39 123,43 119,45 111,49 117,41 111,44 108,43 109,40 110,37 110,37 112,34 108,31  M 12,-52 C 11,-54 13,-57 15,-58 16,-61 21,-61 25,-56 23,-55 14,-60 13,-50 7,-48 7,-53 12,-52  M 43,-81 C 40,-73 48,-71 42,-69 44,-62 49,-69 48,-71 45,-77 59,-69 48,-76 53,-76 47,-83 43,-81  M 48,-86 C 50,-82 48,-86 55,-82 65,-82 58,-86 61,-85 62,-93 58,-81 56,-90 54,-89 59,-84 48,-86  M 55,-77 C 55,-72 57,-73 60,-72 63,-71 68,-71 71,-68 74,-74 67,-83 63,-81 53,-81 63,-76 55,-77  M -21,-3 C -22,-5 -13,-1 -15,-0 -14,7 -16,8 -18,-1 -21,2 -16,3 -22,5 -27,0 -22,0 -21,-3  M -43,-139 C -45,-139 -49,-137 -50,-139 -42,-142 -41,-150 -30,-148 -31,-145 -37,-147 -43,-139  M -42,-132 C -45,-129 -50,-134 -56,-131 -59,-127 -54,-142 -46,-136 -52,-133 -45,-134 -42,-132  M -15,10 C -16,17 -11,18 -21,24 -28,8 -19,23 -18,13 -21,7 -17,6 -15,10  M 12,36 C 11,29 13,33 17,36 23,38 16,39 15,42 14,35 15,37 12,36  M -52,-54 C -55,-50 -61,-47 -60,-50 -62,-54 -59,-48 -52,-54  M -8,14 C -17,10 -1,3 2,9 3,33 -10,22 -10,32 -18,30 -10,20 -8,14  M 42,-62 C 41,-59 38,-62 38,-60 38,-62 40,-63 42,-62  M 57,-56 C 54,-57 53,-59 53,-54 58,-54 56,-53 57,-56  M 24,-144 C 21,-145 15,-142 16,-145 22,-153 32,-137 24,-144  M 69,-84 C 75,-77 76,-75 80,-69 81,-74 72,-83 69,-84  M -61,53 C -57,56 -52,61 -54,57 -56,53 -60,50 -61,53  M 80,-69 C 78,-71 78,-49 81,-48 81,-53 85,-59 80,-69  M -66,38 C -62,36 -57,56 -60,50 -65,40 -60,45 -66,38  M 12,41 C 14,40 13,38 12,36 9,35 10,42 12,41  M 0,27 C 2,26 4,25 5,27 2,31 1,29 0,27  M -5,5 C -4,7 -14,12 -16,8 -15,5 -9,2 -5,5  M 88,-26 C 85,-28 86,-26 85,-23 90,-22 91,-25 88,-26  M 8,6 C 13,11 9,8 10,10 5,10 7,9 8,6  M 14,-2 C 17,-1 17,4 21,3 23,7 14,3 14,-2"/></g><g stroke="#d2c7ba" stroke-opacity="0.16" stroke-width="0.6" fill="none"><line x1="-32.1" y1="55.7" x2="32.1" y2="55.7"/><line x1="-55.7" y1="32.1" x2="55.7" y2="32.1"/><line x1="-64.3" y1="-0.0" x2="64.3" y2="-0.0"/><line x1="-55.7" y1="-32.1" x2="55.7" y2="-32.1"/><line x1="-32.1" y1="-55.7" x2="32.1" y2="-55.7"/><ellipse cx="0" cy="0" rx="55.7" ry="64.3"/><ellipse cx="0" cy="0" rx="32.1" ry="64.3"/><line x1="0" y1="-64.3" x2="0" y2="64.3"/></g><ellipse cx="0" cy="0" rx="63.9" ry="63.9" fill="url(#sunlit)"/><ellipse cx="0" cy="0" rx="63.9" ry="63.9" fill="url(#shade)"/></g><g stroke="none"><circle cx="-66" cy="0" r="3.4" fill="#bf6a47"/><text x="-74" y="-8" font-size="14" fill="#bf6a47" text-anchor="end">perigee</text><circle cx="422" cy="0" r="3.4" fill="#bf6a47"/><text x="430" y="24" font-size="14" fill="#bf6a47" text-anchor="start">apogee</text><circle cx="0" cy="-460" r="3.2" fill="#d2c7ba" fill-opacity="0.8"/><text x="14" y="-452" font-size="15" fill="#d2c7ba" fill-opacity="0.75" text-anchor="start">apogee</text><circle cx="0" cy="70" r="3.0" fill="#d2c7ba" fill-opacity="0.7"/></g><g stroke="#d2c7ba" fill="#d2c7ba"><ellipse cx="0" cy="0" rx="67" ry="67" fill="none" stroke="#d2c7ba" stroke-width="0.8" stroke-dasharray="1,3" stroke-opacity="0.5"/><path d="M 0,67 L 0,150" fill="none" stroke-width="0.8" stroke-opacity="0.4"/><text x="0" y="166" font-size="14" stroke="none" fill="#d2c7ba" fill-opacity="0.6" text-anchor="middle">Kármán line</text><text x="0" y="183" font-size="11.5" stroke="none" fill="#d2c7ba" fill-opacity="0.45" text-anchor="middle">100 km · edge of space</text></g><g><path d="M -171.5,389.0 L -183.2,389.7 L -178.5,379.6 Z" fill="#d2c7ba" fill-opacity="0.5" stroke="none"/><path d="M -104.3,244.9 L -116.0,245.6 L -111.3,235.5 Z" fill="#d2c7ba" fill-opacity="0.5" stroke="none"/><path d="M -22.2,68.9 L -33.9,69.6 L -29.2,59.4 Z" fill="#d2c7ba" fill-opacity="0.5" stroke="none"/></g><g><ellipse cx="0" cy="0" rx="360" ry="360" fill="none" stroke="#d2c7ba" stroke-width="1.1" stroke-dasharray="3,7" stroke-opacity="0.42"/><g><animateTransform attributeName="transform" attributeType="XML" type="rotate" from="0 0 0" to="-360 0 0" dur="339.95s" repeatCount="indefinite"/><g transform="translate(0,-360)"><circle cx="0" cy="0" r="11" fill="url(#ocean)" stroke="#d2c7ba" stroke-opacity="0.5" stroke-width="1"/><circle cx="-3" cy="-2" r="2.2" fill="#d2c7ba" fill-opacity="0.26" stroke="none"/><circle cx="3" cy="3" r="2.8" fill="#d2c7ba" fill-opacity="0.22" stroke="none"/><circle cx="4" cy="-4" r="1.4" fill="#d2c7ba" fill-opacity="0.2" stroke="none"/></g></g><text x="-246" y="256" font-size="20" stroke="none" fill="#d2c7ba" fill-opacity="0.8" text-anchor="end">the Moon</text></g><g transform="translate(360,360)" stroke="#d2c7ba" fill="none" stroke-linecap="round"><circle r="40" stroke="#d2c7ba" stroke-opacity="0.5" stroke-width="1.2"/><line x1="0.0" y1="-27.0" x2="0.0" y2="-38.0" stroke="#d2c7ba" stroke-opacity="0.45" stroke-width="1.6"/><line x1="16.0" y1="-27.7" x2="19.0" y2="-32.9" stroke="#d2c7ba" stroke-opacity="0.45" stroke-width="0.9"/><line x1="27.7" y1="-16.0" x2="32.9" y2="-19.0" stroke="#d2c7ba" stroke-opacity="0.45" stroke-width="0.9"/><line x1="27.0" y1="-0.0" x2="38.0" y2="-0.0" stroke="#d2c7ba" stroke-opacity="0.45" stroke-width="1.6"/><line x1="27.7" y1="16.0" x2="32.9" y2="19.0" stroke="#d2c7ba" stroke-opacity="0.45" stroke-width="0.9"/><line x1="16.0" y1="27.7" x2="19.0" y2="32.9" stroke="#d2c7ba" stroke-opacity="0.45" stroke-width="0.9"/><line x1="0.0" y1="27.0" x2="0.0" y2="38.0" stroke="#d2c7ba" stroke-opacity="0.45" stroke-width="1.6"/><line x1="-16.0" y1="27.7" x2="-19.0" y2="32.9" stroke="#d2c7ba" stroke-opacity="0.45" stroke-width="0.9"/><line x1="-27.7" y1="16.0" x2="-32.9" y2="19.0" stroke="#d2c7ba" stroke-opacity="0.45" stroke-width="0.9"/><line x1="-27.0" y1="0.0" x2="-38.0" y2="0.0" stroke="#d2c7ba" stroke-opacity="0.45" stroke-width="1.6"/><line x1="-27.7" y1="-16.0" x2="-32.9" y2="-19.0" stroke="#d2c7ba" stroke-opacity="0.45" stroke-width="0.9"/><line x1="-16.0" y1="-27.7" x2="-19.0" y2="-32.9" stroke="#d2c7ba" stroke-opacity="0.45" stroke-width="0.9"/><path stroke="#d2c7ba" stroke-opacity="0.85" stroke-width="2.0" d="M 0,0 V -27"><animateTransform attributeName="transform" attributeType="XML" type="rotate" from="0 0 0" to="360 0 0" dur="3.9s" repeatCount="indefinite"/></path><path stroke="#d2c7ba" stroke-opacity="0.85" stroke-width="3.0" d="M 0,0 V -16"><animateTransform attributeName="transform" attributeType="XML" type="rotate" from="0 0 0" to="360 0 0" dur="46.8s" repeatCount="indefinite"/></path><circle r="2.4" fill="#d2c7ba" stroke="none"/></g></g></svg>
